# xmcd
#
# Track frame offsets:
#	150
#	13823
#	28704
#	43337
#	57689
#	72085
#	87967
#	103506
#	118829
#	133650
#	147759
#	160377
#	174986
#	185928
#	198998
#	212572
#	225671
#	239326
#	252999
#	266813
#
# Disc length: 3732 seconds
#
# Revision: 0
# Processed by: cddbd v1.5.1PL2 Copyright (c) Steve Scherf et al.
# Submitted via: dBpowerAMP V4.0
#
DISCID=2f0e9214
DTITLE=Louis Amstrong - The Solid Gold Collection - CD2
DYEAR=2005
DGENRE=Blues
TTITLE0=Melancholy
TTITLE1=Once in a while
TTITLE2=Basin street blues
TTITLE3=Tight like this
TTITLE4=If we never meet again
TTITLE5=The peanut vendor
TTITLE6=You`re lucky to me
TTITLE7=St. james` infirmary
TTITLE8=You rascal you
TTITLE9=Lazy river
TTITLE10=I ain`t got nobody
TTITLE11=Wolverine blues
TTITLE12=Marie
TTITLE13=Sweetharts on parade
TTITLE14=Down in honky tonk town
TTITLE15=Coal cart blues
TTITLE16=Jack armstrong blues
TTITLE17=Jazz lips
TTITLE18=Alligator crawl
TTITLE19=Ev`ntide
EXTD=
EXTT0=
EXTT1=
EXTT2=
EXTT3=
EXTT4=
EXTT5=
EXTT6=
EXTT7=
EXTT8=
EXTT9=
EXTT10=
EXTT11=
EXTT12=
EXTT13=
EXTT14=
EXTT15=
EXTT16=
EXTT17=
EXTT18=
EXTT19=
PLAYORDER=
